# xmcd CD database file
#
# Track frame offsets:
#	157
#	18682
#	35257
#	87682
#	102682
#	122782
#	167257
#	184357
#	203782
#
# Disc length: 3330 seconds
#
# Revision: 0
# Processed by: cddbd v1.5PL3 Copyright (c) Steve Scherf et al.
# Submitted via: CDex 1.51
#
DISCID=7c0d0009
DTITLE=Duke Ellington - Satin Doll
DYEAR=1900
DGENRE=Jazz
TTITLE0=Jeep's Blues
TTITLE1=Pyramid
TTITLE2=La Plus Belle Africaine
TTITLE3=Perdido
TTITLE4=Black Butterfly
TTITLE5=Medley (In a Sentimental Mood, Mood Indigo, I'm beginning to see the Light, I Got it Bad and That Ain't Good, Just Squeeze Me, It Don't Mean a Thing, Solitude)
TTITLE6=Satin Doll
TTITLE7=Isfahan
TTITLE8=Diminuendo and Crescendo in Blue
EXTD=
EXTT0=
EXTT1=
EXTT2=
EXTT3=
EXTT4=
EXTT5=
EXTT6=
EXTT7=
EXTT8=
PLAYORDER=
